<?xml version="1.0" encoding="utf-8"?>
<!-- Generator: Adobe Illustrator 24.3.0, SVG Export Plug-In . SVG Version: 6.00 Build 0)  -->
<svg version="1.1" id="_x34_" xmlns="http://www.w3.org/2000/svg" xmlns:xlink="http://www.w3.org/1999/xlink" x="0px" y="0px"
	 viewBox="0 0 390.1 512" style="enable-background:new 0 0 390.1 512;" xml:space="preserve">
<style type="text/css">
	.st0{fill:#CFB6A6;}
	.st1{fill:#FFFFFF;}
	.st2{fill:#F0EFEF;}
	.st3{fill:#F8F1DF;}
	.st4{fill:#BCBCBC;}
	.st5{opacity:0.23;fill:#FFFFFF;enable-background:new    ;}
	.st6{fill:#D73E5C;}
	.st7{fill:#ADA8AA;}
	.st8{opacity:4.000000e-02;fill:#040000;enable-background:new    ;}
</style>
<g>
	<g>
		<path class="st0" d="M390.1,104.5v361.1c0,25.5-20.9,46.4-46.4,46.4H46.4c-1.4,0-2.8-0.1-4.2-0.2c-1.2-0.1-2.5-0.4-3.6-0.6
			c-1.2-0.2-2.4-0.4-3.5-0.8c-0.6-0.1-1.1-0.3-1.6-0.4c-0.6-0.1-1.3-0.3-1.8-0.5c-2.3-0.7-4.5-1.7-6.6-2.8c-0.8-0.4-1.6-0.8-2.3-1.3
			c-1-0.5-2-1.1-2.9-1.8s-1.7-1.3-2.5-2c-0.1-0.1-0.2-0.2-0.4-0.3c-1.1-1-2.2-1.9-3.3-3s-2-2-3-3.3c-0.1-0.1-0.2-0.2-0.3-0.4
			c-0.7-0.8-1.3-1.6-2-2.5s-1.3-1.9-1.8-2.9c-0.5-0.8-1-1.5-1.3-2.3c-1.1-2.1-2.1-4.3-2.8-6.6c-0.2-0.6-0.4-1.2-0.5-1.8
			c-0.1-0.5-0.3-1.1-0.4-1.6c-0.4-1.1-0.6-2.3-0.8-3.5c-0.2-1.1-0.5-2.3-0.6-3.6C0.1,468.4,0,467,0,465.6V104.5
			c0-25.4,20.9-46.3,46.4-46.3h297.4c1.7,0,3.5,0.1,5.2,0.4c11.5,1.3,21.6,6.7,28.9,14.7c5.6,6,9.5,13.6,11.3,22
			c0.1,0.5,0.2,1,0.3,1.5c0.1,0.8,0.3,1.8,0.4,2.7c0.1,0.4,0.1,0.7,0.1,1.1C390.1,101.8,390.1,103.2,390.1,104.5z"/>
		<rect x="31.2" y="89.6" class="st1" width="327.8" height="391"/>
		<rect x="31.2" y="89.6" class="st2" width="327.8" height="14.4"/>
		<circle class="st3" cx="195.1" cy="192.8" r="76.1"/>
		<g>
			<polygon class="st4" points="297.3,50.1 296,58.2 293.3,73.8 289.3,97.5 100.9,97.5 100.7,96.5 100.4,94.4 99.5,89.6 96.8,73.8 
				94.1,58.2 92.8,50.1 			"/>
			<g>
				<path class="st4" d="M246.8,50.1C246,23,224.3,1.1,197.1,0.1C196.4,0,195.8,0,195.1,0h-0.4c-27.9,0.2-50.5,22.4-51.4,50.1
					c-0.1,0.4-0.1,0.9-0.1,1.3v0.4c0,0.7,0,1.4,0.1,2c0,1.6,0.1,3,0.4,4.4c0.6,5.5,2.2,10.7,4.5,15.5c2.8,6,6.7,11.4,11.5,15.8
					c3.3,3.1,7,5.7,11,7.9h48.8c4-2.2,7.7-4.8,11-7.9c4.8-4.5,8.7-9.8,11.5-15.8c2.3-4.8,3.8-10,4.5-15.5c0.3-2.1,0.4-4.2,0.4-6.4
					C246.9,51.2,246.9,50.7,246.8,50.1z M211.8,73.8c-4.6,3.6-10.5,5.7-16.8,5.7s-12.2-2.1-16.8-5.7c-5-3.7-8.7-9.3-10.2-15.5
					c-0.5-2-0.7-4.2-0.7-6.4c0-0.6,0-1.2,0.1-1.7c0.9-14.5,12.9-26,27.6-26c14.7,0,26.7,11.5,27.6,26c0.1,0.5,0.1,1.1,0.1,1.7
					c0,2.2-0.2,4.4-0.7,6.4C220.5,64.5,216.8,70,211.8,73.8z"/>
			</g>
		</g>
		<path class="st5" d="M92.8,50.1l1.3,8.1h0.1l2.6,15.5h196.5l2.6-15.5h0.1l1.3-8.1H92.8z"/>
		<g>
			<g>
				<rect x="141.1" y="180.2" class="st6" width="107.9" height="34.7"/>
				<rect x="177.7" y="143.6" class="st6" width="34.7" height="107.9"/>
			</g>
		</g>
		<rect x="44.3" y="289.8" class="st7" width="301.6" height="9"/>
		<rect x="61" y="324.2" class="st7" width="268.2" height="19.9"/>
		<rect x="61" y="372" class="st7" width="268.2" height="19.9"/>
		<rect x="125.5" y="419.9" class="st7" width="139.1" height="19.9"/>
	</g>
	<path class="st8" d="M390.1,104.5v361.1c0,25.5-20.9,46.4-46.4,46.4H46.4c-1.4,0-2.8-0.1-4.2-0.2c-1.2-0.1-2.5-0.4-3.6-0.6
		c-1.2-0.2-2.4-0.4-3.5-0.8c-0.6-0.1-1.1-0.3-1.6-0.4c-0.6-0.1-1.3-0.3-1.8-0.5c-2.3-0.7-4.5-1.7-6.6-2.8c-0.8-0.4-1.6-0.8-2.3-1.3
		c-1-0.5-2-1.1-2.9-1.8s-1.7-1.3-2.5-2c-0.1-0.1-0.2-0.2-0.4-0.3c-1.1-1-2.2-1.9-3.3-3s-2-2-3-3.3c-0.1-0.1-0.2-0.2-0.3-0.4
		c-0.7-0.8-1.3-1.6-2-2.5s-1.3-1.9-1.8-2.9c-0.5-0.8-1-1.5-1.3-2.3c-1.1-2.1-2.1-4.3-2.8-6.6c-0.2-0.6-0.4-1.2-0.5-1.8
		c-0.1-0.5-0.3-1.1-0.4-1.6c-0.4-1.1-0.6-2.3-0.8-3.5c-0.2-1.1-0.5-2.3-0.6-3.6C0.1,468.4,0,467,0,465.6V451l161.1-161.1l21.9-21.9
		l0.1-0.1l16.5-16.4l49.4-49.4l21.1-21.2l0.1-0.1l76.9-76.8l11.8-11.9l0.1-0.1l8.5-8.6l3.3-3.3l7.1-7c5.6,6,9.5,13.6,11.3,22
		c0.1,0.5,0.2,1,0.3,1.5c0.1,0.8,0.3,1.8,0.4,2.7c0.1,0.4,0.1,0.7,0.1,1.1C390.1,101.8,390.1,103.2,390.1,104.5z"/>
</g>
</svg>
